<svg xmlns="http://www.w3.org/2000/svg" version="1.1" xmlns:xlink="http://www.w3.org/1999/xlink" width="461.797" height="473.386"><svg xmlns="http://www.w3.org/2000/svg" width="461.797" height="473.386" xmlns:v="https://vecta.io/nano"><path d="M331.555 447.743c16.324-19.644 19.312-50.923 7.814-81.867-7.94-21.376-28.376-52.293-44.09-66.697-7.885-7.23-13.52-10.805-23.394-14.835-.234-.097.24-.95 1.05-1.898 5.08-5.93 14.047-17.367 19.542-24.923 5.454-7.5 7.546-10.52 11.297-16.315.433-.668.996-.414 2.835 1.28 6.816 6.277 18.237 14.115 29.516 20.256 35.523 19.34 69.31 25.484 88.922 16.172 5.443-2.584 10.164-7.237 12.144-11.97 1.556-3.717 1.557-3.718 4.662-5.194 4.707-2.236 11.747-6.987 14.378-9.705 3.468-3.58 4.92-7.262 5.457-13.833 1.62-19.84-15.196-44.59-45.522-67-29.396-21.722-55.19-31.196-76.414-28.066-2.997.442-7.185 1.51-9.307 2.375s-3.952 1.46-4.066 1.32.185-2.302.66-4.807c2.6-13.7-.033-34.993-5.995-48.48-8.434-19.078-18.07-27.667-32.3-28.793l-5.687-.45.163-3.51c.22-4.766-.35-8.74-3.616-25.057-4.9-24.5-6.865-30.597-10.924-33.927-2.482-2.036-6.45-2.4-10.03-.915-2.865 1.188-3.12 1.406-4.427 3.753-2.73 4.91-2.048 11.35 3.857 36.417 2.767 11.746 6.922 24.467 8.658 26.507.767.902.304 1.396-2.423 2.586-2.75 1.203-9.5 6.84-11.06 9.25-5.924 9.096-8.176 20.323-6.73 33.56 1.575 14.407 5.54 25.41 13.216 36.665l3.927 5.757-7.464 6.292c-4.104 3.46-8.86 7.914-10.566 9.896-8.855 10.27-22.22 29.146-33.77 47.68l-5.405 8.563c-.157.19-3.462-1.6-7.342-3.957-4.627-2.82-11.633-6.25-20.34-9.958-7.305-3.11-13.25-5.776-13.214-5.927s1.377-1.997 2.98-4.107c20.22-26.628 22.8-62.742 7.262-102.135-4.295-10.894-13.61-29.27-20.497-40.422-7.548-12.226-18.536-25.538-26.268-31.822-6.82-5.542-15.343-9.754-22.964-11.35-9.956-2.085-24.205 1.19-34.3 7.886-2.837 1.882-3.196 1.957-5.852 1.226-6.48-1.78-17.2-1.467-25.708.756-16.202 4.23-26.703 15.42-32.315 34.436-4.426 15-5.642 34.54-3.624 58.226 2.575 30.226 7.585 48.84 18.422 68.432 4.046 7.315 16.082 21.4 22.6 26.466 4.04 3.13 9.462 6.588 14.112 8.992.737.382-.093 1.195-6.362 6.238-14.2 11.423-22.717 22.617-36.338 47.767-19.644 36.265-21.813 57.878-7.3 72.733l2.96 3.027-2.587.722C3.808 356.724-.306 362.476.2 368.444c.22 2.597.605 3.46 2.61 5.85 1.922 2.29 2.856 2.954 5.09 3.614 3.614 1.07 8.602-.088 11.71-2.72 2.157-1.827 4.667-5.972 4.464-7.37-.058-.398 1.07-1.11 2.864-1.81 2.2-.857 3.99-.994 6.96-.535 10.963 1.7 22.242-1.594 35.234-10.3 5.976-4 29.84-24.58 37.335-32.192 6.653-6.762 13.908-15.215 17.79-20.728 1.81-2.573 3.566-4.64 3.9-4.595s2.965 1.554 5.846 3.35c15.053 9.38 29.342 15.738 42.54 18.935 2.854.69 5.158 1.36 5.118 1.487s-.967 2.24-2.065 4.698c-7.166 16.033-3.95 41.377 9.554 75.31 10.776 27.08 23.362 44.68 41.185 57.598 22.16 16.06 49.093 18.91 67.508 7.147 1.8-1.142 3.88-1.853 6.258-2.13 9.608-1.114 19.904-7.234 27.452-16.318z"></path><path d="M315.87 454.25c-11.8 7.216-26.15 7.025-34.923-.467-5.166-4.407-8.535-10.404-18.748-33.35-4.037-9.07-9.114-19.17-15.225-30.284l-12.837-23.876c-10.295-20.206-14.428-34.938-13.072-46.578.75-6.45 1.07-7.088 5.8-11.583 3.838-3.656 5.992-6.33 10.68-13.26 1.36-2 2.2-2.68 6.18-4.887 11.86-6.587 23.8-6.18 36.007 1.23 13.786 8.368 28.033 24.794 43.136 49.727 20.763 34.277 24.612 68.12 10.733 94.36-4.4 8.3-9.87 14.166-17.72 18.97zm-29.398 11.527c-15.678 5.57-35.47 2.095-52.608-9.24-8.537-5.645-14.056-10.894-21.8-20.72-11.018-14-18.033-27.873-25.818-51.06-9.285-27.665-10.342-48.466-3.12-61.328l1.44-2.563 5.676.152c9.535.254 16.422-.94 23.128-4l4.28-1.95c.4-.184.527 1.72.28 4.54-.506 5.792-.012 11.277 1.634 18.155 3.023 12.648 9.314 26.42 23.886 52.3 7.256 12.884 10.685 19.766 17.382 34.888 6.76 15.26 9.6 20.8 13.12 25.63 4.62 6.33 9.535 9.706 16.348 11.228l3.47.775-1.748.925c-.963.5-3.465 1.534-5.562 2.28zm135.272-190.385c-12.1 5.774-31.733 5.133-53.234-1.736C355.2 269.4 334.066 259 321.212 250.37c-4.982-3.346-14.4-10.757-15.828-12.47-.43-.513.267-2.342 2.318-6.086 1.612-2.944 4.38-8.582 6.15-12.528s3.317-7.255 3.436-7.356 1.512.874 3.093 2.165c10.6 8.64 25.947 17.738 48.534 28.754 32.573 15.887 47.838 21.13 60.94 20.933l3.314-.05-1.636 2.957c-1.974 3.562-5.4 6.6-9.8 8.703zm19.208-18.435c-5.696 3.207-10.633 4.208-17.06 3.46-10.494-1.226-24.024-6.127-46.196-16.736-27.82-13.3-41.918-21.405-54.462-31.268-5.03-3.955-5.192-4.245-4.157-7.485 2.505-7.85 2.968-18.322 1.125-25.524-1.64-6.4-3.097-9.265-7.223-14.197l-3.33-3.98 2.578-2.163c3.382-2.84 12.2-8.32 16.07-10 17.434-7.546 41.303-2.674 68.447 13.972 32.048 19.652 53.727 43.376 58.9 64.45 1.983 8.1 1.03 15.497-2.662 20.664-1.3 1.82-6.88 5.907-12.03 8.807zm-178.322 25.25c-2.28-.17-5.975.05-8.2.485-4.25.83-11 3.442-12.806 4.95-.9.764-1 .146-.612-4.68.612-7.798-1.42-15.403-6.517-24.387-3.397-6-14.917-19.272-21.204-24.45-2.77-2.282-5.012-4.387-4.983-4.68.064-.63 12.092-19.514 18.093-28.407 20.4-30.216 33.916-43.2 49.33-47.315 5.256-1.407 14.033-.48 19.545 2.062 16.46 7.592 24.247 20.186 22.795 36.863-1.53 17.598-10.75 37.227-29.44 62.672-7.837 10.67-17.74 23.08-21.147 26.497-.384.385-2.56.56-4.842.392zM218.4 310.9c-15.672 9.94-35.54 9.467-60.887-1.446-6.187-2.664-11.633-5.593-20.882-11.227l-7.526-4.586 1.868-3.853c8.27-17.076 8.265-39.597-.014-54.538-1.9-3.446-2.2-4.344-1.46-4.56 9.947-2.886 19.04-7.927 27.42-15.203l5.957-5.17 12.877 5.495c14.05 5.996 18.97 8.534 25.945 13.38 22.954 15.958 37.575 37.2 36.376 52.866-.4 5.078-1.718 8.68-5.2 14.092-4.295 6.7-8.448 10.92-14.483 14.75zm94.497-155.938l-5.707 4.3-2.818-1.9c-11.9-8.02-24.97-9.667-35.634-4.493l-2.497 1.2-2.552-3.042c-12.8-15.248-18.85-41.894-13.527-59.578 2.918-9.698 8.924-16.058 18.783-19.896 13.993-5.447 26.06-4.14 34.96 3.788 12.274 10.935 20.732 36.3 19.436 58.273-.57 9.654-1.784 15.44-3.433 16.34-.717.393-3.872 2.646-7 5.004zM69.2 350.126c-19.37 13.85-35.9 15.062-50.7 3.714-5.416-4.156-11.168-11.17-12.925-15.766-3.9-10.197-1.997-23.8 5.862-41.833 5.972-13.7 16.96-33.148 24.668-43.632 7.38-10.037 17.882-20.182 26.83-25.912 22.075-14.14 44.815-13.048 60.042 2.885 3.164 3.312 4.228 4.822 6.066 8.617 8.844 18.266 6.283 41.318-6.686 60.178-3.444 5.008-9.714 12.578-15.317 18.493-8.893 9.388-28.235 26.384-37.848 33.256zm-56.15 23.778c-6.623.378-10.394-4.1-8.878-10.54.66-2.806 3.508-5.47 6.9-6.45l2.858-.827.34 2.227c.4 2.698 2.84 5.772 5.405 6.842 2.122.887 2.1.758.83 3.367-1.24 2.567-4.94 5.237-7.454 5.38zm7.932-11.588c-2.014-.84-3.158-2.12-3.544-3.956-.258-1.227.143-1.118 3.947 1.075l4.34 2.567c.06.07-.6.326-1.484.568s-2.342.13-3.26-.254zm125.92-142.928c-5.45 3.52-11.113 6.178-16.357 7.674l-4.365 1.244-2.806-2.727c-5.516-5.367-12.626-9.058-21.2-11l-4.9-1.1-1.75-4.552c-2.274-5.917-4.366-14.264-7.503-29.952-7.084-35.43-8.428-40.58-18.54-71.042-10.67-32.145-12.85-41.95-11.85-53.38.548-6.27 2.888-12.502 6.34-16.887 4.994-6.34 15.978-12.742 26.217-15.278 6.62-1.64 16.16-.806 22.816 1.994 10.3 4.334 18.605 11.38 28.963 24.573 9.827 12.514 19.06 28.437 27.555 47.518 19.803 44.48 16.3 84.327-9.897 112.515-2.57 2.766-8.895 7.942-12.73 10.42zM270.12 67.98c-1.982 1.665-6.874-12.278-11.45-32.655-3.716-16.535-4.304-20.22-3.9-24.345.304-2.998.638-3.77 2.196-5.08 2.44-2.048 5.828-2.503 8.1-1.1 3.68 2.275 5.548 8.245 10.845 34.682 2.97 14.836 3.72 21.45 2.75 24.317-.64 1.9-.696 1.927-4.386 2.858-2.056.52-3.935 1.1-4.177 1.312zM80.077 215.604c-3.045.684-11.24 3.987-13.833 5.574-2.732 1.674-3.412 1.516-9.776-2.265-16.906-10.047-30.403-26.93-38.644-48.343C9.932 150.064 5.462 114.435 7.4 87.552c1.584-21.902 6.306-35.474 15.85-45.567 6.373-6.738 15.215-10.604 27.136-11.86 4.5-.476 14.44.15 15.1.948.204.244-.58 1.25-1.74 2.236-2.66 2.258-5.9 7.595-7.582 12.447-2.75 7.985-2.074 22.16 1.718 36.004.8 2.955 4.086 13.227 7.282 22.827 10.883 32.7 12.884 40.148 19.068 71.06l4.667 21.784c1.72 7.117 1.74 7.505.422 8.992-.758.856-2.353 2.842-3.545 4.416-2.933 3.87-3.38 4.24-5.72 4.766z" fill="#f0f"></path></svg><style>@media (prefers-color-scheme: light) { :root { filter: none; } }
@media (prefers-color-scheme: dark) { :root { filter: none; } }
</style></svg>